<svg width="22" height="22" viewBox="0 0 22 22" fill="none" xmlns="http://www.w3.org/2000/svg">
<path d="M17.5001 17.4167H9.25558C8.06667 17.4167 7.0125 16.6367 6.69075 15.5192L3.90408 6.07666C3.80508 5.73475 3.476 5.50008 3.10017 5.50008H0.916667C0.40975 5.50008 0 5.08941 0 4.58341C0 4.07741 0.40975 3.66675 0.916667 3.66675H3.10017C4.28908 3.66675 5.34233 4.44683 5.66408 5.56425L6.18567 7.33341H20.2061C20.7781 7.33341 21.3207 7.60566 21.6572 8.06216C21.9908 8.515 22.0871 9.0815 21.9212 9.61683L20.0301 15.6192C19.6597 16.7027 18.645 17.4167 17.5001 17.4167ZM20.207 9.16675H20.2162H20.207Z" fill="#6A4D67"/>
<path d="M10.0833 21.9999C9.07225 21.9999 8.25 21.1777 8.25 20.1666C8.25 19.1555 9.07225 18.3333 10.0833 18.3333C11.0944 18.3333 11.9167 19.1555 11.9167 20.1666C11.9167 21.1777 11.0944 21.9999 10.0833 21.9999ZM10.0833 20.1657V20.1666V20.1657Z" fill="#6A4D67"/>
<path d="M16.4998 21.9999C15.4888 21.9999 14.6665 21.1777 14.6665 20.1666C14.6665 19.1555 15.4888 18.3333 16.4998 18.3333C17.5109 18.3333 18.3332 19.1555 18.3332 20.1666C18.3332 21.1777 17.5109 21.9999 16.4998 21.9999ZM16.4998 20.1657V20.1666V20.1657Z" fill="#6A4D67"/>
</svg>
