<svg width="20" height="22" viewBox="0 0 20 22" fill="none" xmlns="http://www.w3.org/2000/svg">
<path d="M15.5001 17.4167H7.25558C6.06667 17.4167 5.0125 16.6367 4.69075 15.5192L1.90408 6.07666C1.80508 5.73475 1.476 5.50008 1.10017 5.50008H-1.08333C-1.59025 5.50008 -2 5.08941 -2 4.58341C-2 4.07741 -1.59025 3.66675 -1.08333 3.66675H1.10017C2.28908 3.66675 3.34233 4.44683 3.66408 5.56425L4.18567 7.33341H18.2061C18.7781 7.33341 19.3207 7.60566 19.6572 8.06216C19.9908 8.515 20.0871 9.0815 19.9212 9.61683L18.0301 15.6192C17.6597 16.7027 16.645 17.4167 15.5001 17.4167ZM18.207 9.16675H18.2162H18.207Z" fill="#A4B0BE"/>
<path d="M8.08333 21.9999C7.07225 21.9999 6.25 21.1777 6.25 20.1666C6.25 19.1555 7.07225 18.3333 8.08333 18.3333C9.09442 18.3333 9.91667 19.1555 9.91667 20.1666C9.91667 21.1777 9.09442 21.9999 8.08333 21.9999ZM8.08333 20.1657V20.1666V20.1657Z" fill="#A4B0BE"/>
<path d="M14.4998 21.9999C13.4888 21.9999 12.6665 21.1777 12.6665 20.1666C12.6665 19.1555 13.4888 18.3333 14.4998 18.3333C15.5109 18.3333 16.3332 19.1555 16.3332 20.1666C16.3332 21.1777 15.5109 21.9999 14.4998 21.9999ZM14.4998 20.1657V20.1666V20.1657Z" fill="#A4B0BE"/>
</svg>
