<svg width="18" height="18" viewBox="0 0 18 18" fill="none" xmlns="http://www.w3.org/2000/svg">
<path d="M11.8261 3.52174H13.7826C13.9986 3.52174 14.1739 3.34643 14.1739 3.13043V0.494217C14.1739 0.289174 14.0162 0.118565 13.812 0.104087C13.1894 0.0598696 11.9732 0 11.0987 0C8.69565 0 7.13043 1.44 7.13043 4.05704V6.65217H4.3913C4.1753 6.65217 4 6.82748 4 7.04348V9.78261C4 9.99861 4.1753 10.1739 4.3913 10.1739H7.13043V17.6087C7.13043 17.8247 7.30574 18 7.52174 18H10.2609C10.4769 18 10.6522 17.8247 10.6522 17.6087V10.1739H13.4782C13.6777 10.1739 13.8452 10.024 13.8671 9.82565L14.1716 7.08652C14.1974 6.85487 14.0158 6.65217 13.7826 6.65217H10.6522V4.69565C10.6522 4.04726 11.1777 3.52174 11.8261 3.52174Z" fill="#A4B0BE"/>
</svg>
